<?xml version="1.0" standalone="no"?>
<!DOCTYPE svg PUBLIC "-//W3C//DTD SVG 20010904//EN"
 "http://www.w3.org/TR/2001/REC-SVG-20010904/DTD/svg10.dtd">
<svg version="1.0" xmlns="http://www.w3.org/2000/svg"
 width="520.000000pt" height="172.000000pt" viewBox="0 0 520.000000 172.000000"
 preserveAspectRatio="xMidYMid meet">

<g transform="translate(0.000000,172.000000) scale(0.100000,-0.100000)"
fill="#000000" stroke="none">
<path d="M1010 1360 c-90 -16 -235 -84 -262 -124 -16 -22 -7 -66 18 -96 l27
-31 33 32 c19 18 35 31 37 28 6 -7 -169 -657 -188 -700 -10 -22 -28 -47 -39
-55 -20 -13 -20 -14 4 -39 43 -46 122 -42 154 7 15 23 53 150 78 262 l13 59
65 14 c98 19 186 67 256 138 81 83 116 156 122 258 6 96 -13 151 -68 201 -59
53 -132 66 -250 46z m130 -109 c41 -29 51 -59 47 -133 -9 -142 -116 -268 -265
-313 -20 -6 -23 -4 -19 12 2 10 26 116 53 235 47 208 50 217 74 221 38 6 82
-3 110 -22z"/>
<path d="M3553 1310 c-24 -10 -44 -44 -63 -106 -11 -38 -16 -42 -53 -48 -22
-4 -59 -4 -83 0 -35 5 -46 2 -64 -16 -48 -48 0 -88 109 -89 50 -1 53 -2 47
-23 -27 -91 -59 -286 -60 -361 l-1 -88 37 -35 c30 -27 46 -34 79 -34 50 0 72
11 126 63 l42 41 43 -46 c67 -72 153 -82 244 -29 30 18 31 18 42 0 19 -30 49
-23 80 20 16 22 60 92 98 155 65 110 70 116 101 116 18 0 33 -5 33 -11 0 -6
-21 -49 -46 -97 -54 -103 -55 -145 -6 -194 77 -77 219 3 341 192 45 69 48 82
26 100 -21 18 -50 4 -77 -38 -63 -95 -173 -193 -198 -177 -17 11 -11 32 26 86
70 104 77 133 49 194 -18 36 -55 58 -88 50 -21 -6 -22 -3 -19 37 7 79 -59 125
-114 80 -46 -37 -77 -111 -63 -150 7 -17 1 -38 -22 -84 -52 -102 -180 -208
-252 -208 -30 0 -70 34 -65 55 2 7 37 37 78 67 93 66 140 131 140 193 0 35 -5
48 -26 64 -89 70 -249 -39 -314 -212 -14 -37 -36 -69 -68 -100 -64 -59 -87
-71 -112 -57 -32 17 -25 73 24 195 24 61 54 143 67 184 l24 74 98 -7 c108 -8
127 -1 127 41 0 27 -35 46 -105 58 -103 17 -95 11 -92 69 3 77 -26 102 -90 76z
m347 -418 c0 -10 -19 -36 -41 -57 -37 -36 -41 -37 -34 -15 9 30 52 90 66 90 5
0 9 -8 9 -18z"/>
<path d="M1443 1299 c-32 -9 -33 -12 -33 -60 0 -39 -117 -572 -145 -660 -8
-25 32 -69 63 -69 15 0 32 4 38 8 14 8 194 699 194 740 0 16 -5 33 -12 40 -14
14 -59 14 -105 1z"/>
<path d="M2593 1299 c-32 -9 -33 -12 -33 -60 0 -39 -117 -572 -145 -660 -8
-25 32 -69 63 -69 15 0 32 4 38 8 14 8 194 699 194 740 0 16 -5 33 -12 40 -14
14 -59 14 -105 1z"/>
<path d="M2847 1249 c-26 -15 -50 -68 -43 -95 4 -13 17 -31 30 -39 61 -40 134
55 96 126 -12 21 -53 25 -83 8z"/>
<path d="M3138 1030 c-50 -27 -81 -73 -83 -124 -1 -35 -10 -54 -57 -112 -75
-93 -163 -174 -190 -174 -19 0 -5 78 36 206 51 157 50 170 -18 158 -23 -3 -48
-10 -57 -15 -55 -28 -102 -316 -64 -389 30 -58 104 -76 165 -39 42 26 169 158
212 221 18 27 35 48 38 48 11 0 62 -159 58 -182 -6 -43 -34 -32 -57 22 -21 48
-24 51 -49 46 -32 -8 -82 -59 -82 -84 0 -26 35 -79 66 -99 63 -41 159 -3 215
84 37 59 37 89 -1 169 -59 122 -61 135 -34 180 30 48 30 49 -1 79 -29 30 -48
31 -97 5z"/>
<path d="M1688 980 c-74 -49 -135 -132 -168 -229 -47 -142 1 -254 102 -234 41
7 100 36 117 57 12 14 16 12 35 -17 21 -30 26 -32 79 -32 50 0 60 4 90 33 l34
33 21 -35 c15 -25 32 -38 59 -45 54 -15 74 -14 111 9 17 11 32 17 32 14 0 -4
-23 -96 -52 -205 -51 -197 -51 -199 -32 -220 35 -39 95 -46 108 -14 3 8 21 94
41 192 46 227 97 437 130 532 27 81 31 112 15 142 -18 34 -95 25 -149 -17 -2
-2 2 -10 9 -19 29 -35 -22 -177 -95 -262 -80 -94 -98 -34 -40 132 19 55 35
112 35 127 0 54 -54 73 -125 44 -32 -14 -33 -16 -23 -43 8 -23 5 -45 -16 -115
-23 -76 -34 -95 -82 -145 -74 -78 -81 -64 -48 91 29 142 29 153 5 161 -13 4
-17 12 -14 25 3 12 -4 28 -21 44 -37 38 -98 36 -158 -4z m47 -110 l-15 -30 30
6 c35 8 35 10 14 -69 -18 -71 -40 -105 -83 -130 -29 -17 -30 -17 -40 0 -19 36
16 147 71 226 26 36 42 35 23 -3z"/>
</g>
</svg>
